<svg width="516" height="311" viewBox="0 0 516 311" xmlns="http://www.w3.org/2000/svg" lang="en" xml:lang="en"><rect x="2" y="2" stroke-width="4" rx="6" width="512" height="307" stroke="rgba(84,174,255,0.4)" fill="#ffffff"/><g font-weight="600" font-size="110pt" font-family="Verdana,Geneva,DejaVu Sans,sans-serif" text-rendering="geometricPrecision"><text x="827" y="301" lengthAdjust="spacingAndGlyphs" textLength="2542" transform="scale(0.123)" fill="#0969da">Tushar Bharti's GitHub Activity</text><svg x="15" y="15" width="25" height="25" viewBox="0 0 16 16"><path fill="#000000" fill-rule="evenodd" d="M8 0C3.58 0 0 3.58 0 8c0 3.54 2.29 6.53 5.47 7.59.4.07.55-.17.55-.38 0-.19-.01-.82-.01-1.49-2.01.37-2.53-.49-2.69-.94-.09-.23-.48-.94-.82-1.13-.28-.15-.68-.52-.01-.53.63-.01 1.08.58 1.23.82.72 1.21 1.87.87 2.33.66.07-.52.28-.87.51-1.07-1.78-.2-3.64-.89-3.64-3.95 0-.87.31-1.59.82-2.15-.08-.2-.36-1.02.08-2.12 0 0 .67-.21 2.2.82.64-.18 1.32-.27 2-.27.68 0 1.36.09 2 .27 1.53-1.04 2.2-.82 2.2-.82.44 1.1.16 1.92.08 2.12.51.56.82 1.27.82 2.15 0 3.07-1.87 3.75-3.65 3.95.29.25.54.73.54 1.48 0 1.07-.01 1.93-.01 2.2 0 .21.15.46.55.38A8.013 8.013 0 0016 8c0-4.42-3.58-8-8-8z"/></svg><svg x="476" y="15" width="25" height="25" viewBox="0 0 16 16"><path fill="#000000" fill-rule="evenodd" d="M8 0C3.58 0 0 3.58 0 8c0 3.54 2.29 6.53 5.47 7.59.4.07.55-.17.55-.38 0-.19-.01-.82-.01-1.49-2.01.37-2.53-.49-2.69-.94-.09-.23-.48-.94-.82-1.13-.28-.15-.68-.52-.01-.53.63-.01 1.08.58 1.23.82.72 1.21 1.87.87 2.33.66.07-.52.28-.87.51-1.07-1.78-.2-3.64-.89-3.64-3.95 0-.87.31-1.59.82-2.15-.08-.2-.36-1.02.08-2.12 0 0 .67-.21 2.2.82.64-.18 1.32-.27 2-.27.68 0 1.36.09 2 .27 1.53-1.04 2.2-.82 2.2-.82.44 1.1.16 1.92.08 2.12.51.56.82 1.27.82 2.15 0 3.07-1.87 3.75-3.65 3.95.29.25.54.73.54 1.48 0 1.07-.01 1.93-.01 2.2 0 .21.15.46.55.38A8.013 8.013 0 0016 8c0-4.42-3.58-8-8-8z"/></svg><g transform="translate(0, 60)" fill="#24292f"><g transform="translate(15, 0)"><g transform="scale(0.095)"><text x="0" y="132" textLength="3652" lengthAdjust="spacingAndGlyphs">Language Distribution in Public Repositories</text></g></g><g transform="translate(273, 21)"><circle cx="102" cy="102" r="102" fill="#000000"/></g><g transform="translate(274, 22)"><path fill-rule="evenodd" fill="#DA5B0B" d="M 0.0,101.00000000000001 A 101 101 0 0 1 123.0819303293459 2.443476355291864 L 101,101 Z"/><path fill-rule="evenodd" fill="#f1e05a" d="M 123.0819303293459,2.443476355291864 A 101 101 0 0 1 196.4885385071234 68.09196125908431 L 101,101 Z"/><path fill-rule="evenodd" fill="#663399" d="M 196.4885385071234,68.09196125908431 A 101 101 0 0 1 185.73296785620437 155.9665730992886 L 101,101 Z"/><path fill-rule="evenodd" fill="#c6538c" d="M 185.73296785620437,155.9665730992886 A 101 101 0 0 1 113.70183398905033 201.19812080730162 L 101,101 Z"/><path fill-rule="evenodd" fill="#3178c6" d="M 113.70183398905033,201.19812080730162 A 101 101 0 0 1 34.01039286361264 176.58698655001717 L 101,101 Z"/><path fill-rule="evenodd" fill="#e34c26" d="M 34.01039286361264,176.58698655001717 A 101 101 0 0 1 9.090877739785626 142.87735957957435 L 101,101 Z"/><path fill-rule="evenodd" fill="#1d365d" d="M 9.090877739785626,142.87735957957435 A 101 101 0 0 1 0.036421427040650656 103.71215813363897 L 101,101 Z"/><path fill-rule="evenodd" fill="#959da5" d="M 0.036421427040650656,103.71215813363897 A 101 101 0 0 1 0.0 101.00000000000004 L 101,101 Z"/></g><g transform="translate(15, 21)"><rect x="0.5" y="0.5" rx="2" width="15" height="15" fill="#DA5B0B" stroke-width="1" stroke="#000000"/><text transform="scale(0.095)" x="263" y="132" textLength="2126" lengthAdjust="spacingAndGlyphs">Jupyter Notebook 28.51%</text></g><g transform="translate(15, 42)"><rect x="0.5" y="0.5" rx="2" width="15" height="15" fill="#f1e05a" stroke-width="1" stroke="#000000"/><text transform="scale(0.095)" x="263" y="132" textLength="1516" lengthAdjust="spacingAndGlyphs">JavaScript 16.21%</text></g><g transform="translate(15, 63)"><rect x="0.5" y="0.5" rx="2" width="15" height="15" fill="#663399" stroke-width="1" stroke="#000000"/><text transform="scale(0.095)" x="263" y="132" textLength="1008" lengthAdjust="spacingAndGlyphs">CSS 14.44%</text></g><g transform="translate(15, 84)"><rect x="0.5" y="0.5" rx="2" width="15" height="15" fill="#c6538c" stroke-width="1" stroke="#000000"/><text transform="scale(0.095)" x="263" y="132" textLength="1113" lengthAdjust="spacingAndGlyphs">SCSS 13.83%</text></g><g transform="translate(15, 105)"><rect x="0.5" y="0.5" rx="2" width="15" height="15" fill="#3178c6" stroke-width="1" stroke="#000000"/><text transform="scale(0.095)" x="263" y="132" textLength="1568" lengthAdjust="spacingAndGlyphs">TypeScript 13.55%</text></g><g transform="translate(15, 126)"><rect x="0.5" y="0.5" rx="2" width="15" height="15" fill="#e34c26" stroke-width="1" stroke="#000000"/><text transform="scale(0.095)" x="263" y="132" textLength="1036" lengthAdjust="spacingAndGlyphs">HTML 6.65%</text></g><g transform="translate(15, 147)"><rect x="0.5" y="0.5" rx="2" width="15" height="15" fill="#1d365d" stroke-width="1" stroke="#000000"/><text transform="scale(0.095)" x="263" y="132" textLength="942" lengthAdjust="spacingAndGlyphs">Less 6.38%</text></g><g transform="translate(15, 168)"><rect x="0.5" y="0.5" rx="2" width="15" height="15" fill="#959da5" stroke-width="1" stroke="#000000"/><text transform="scale(0.095)" x="263" y="132" textLength="1047" lengthAdjust="spacingAndGlyphs">Other 0.43%</text></g></g></g></svg>